<svg xmlns="http://www.w3.org/2000/svg" version="1.1" xmlns:xlink="http://www.w3.org/1999/xlink" xmlns:svgjs="http://svgjs.dev/svgjs" width="1000" height="623" viewBox="0 0 1000 623"><g transform="matrix(1,0,0,1,-0.6060606060606233,0.2522267206477409)"><svg viewBox="0 0 396 247" data-background-color="#1c1a28" preserveAspectRatio="xMidYMid meet" height="623" width="1000" xmlns="http://www.w3.org/2000/svg" xmlns:xlink="http://www.w3.org/1999/xlink"><g id="tight-bounds" transform="matrix(1,0,0,1,0.2400000000000091,-0.09999999999999432)"><svg viewBox="0 0 395.52 247.2" height="247.2" width="395.52"><g><svg></svg></g><g><svg viewBox="0 0 395.52 247.2" height="247.2" width="395.52"><g transform="matrix(1,0,0,1,120.19918363704289,47.215199999999996)"><svg viewBox="0 0 155.1216327259142 152.7696" height="152.7696" width="155.1216327259142"><g><svg viewBox="0 0 155.1216327259142 152.7696" height="152.7696" width="155.1216327259142"><g><svg viewBox="0 0 198.9785344521861 195.96152117968586" height="152.7696" width="155.1216327259142"><g><svg viewBox="0 0 198.9785344521861 195.96152117968586" height="195.96152117968586" width="198.9785344521861"><g><svg viewBox="0 0 198.9785344521861 195.96152117968586" height="195.96152117968586" width="198.9785344521861"><g><svg viewBox="0 0 198.9785344521861 151.825483872" height="151.825483872" width="198.9785344521861"><g transform="matrix(1,0,0,1,0,0)"><svg width="198.9785344521861" viewBox="1.8300000429153442 -40.40999984741211 52.94999694824219 40.40999984741211" height="151.825483872" data-palette-color="#ff4057"><path d="M1.83 0L22.97-27.1 26.64-31.57 3.71-31.57 3.71-38.16 41.04-38.16 19.68-11.33 15.87-6.59 39.84-6.59 39.84 0 1.83 0ZM50.07-32.74L50.07-32.74Q49-32.74 48.13-33.04 47.26-33.35 46.65-33.87 46.04-34.4 45.71-35.1 45.38-35.79 45.38-36.57L45.38-36.57Q45.38-37.38 45.71-38.07 46.04-38.77 46.65-39.28 47.26-39.79 48.13-40.1 49-40.41 50.07-40.41L50.07-40.41Q51.17-40.41 52.04-40.1 52.9-39.79 53.51-39.28 54.12-38.77 54.45-38.07 54.78-37.38 54.78-36.57L54.78-36.57Q54.78-35.79 54.45-35.1 54.12-34.4 53.51-33.87 52.9-33.35 52.04-33.04 51.17-32.74 50.07-32.74ZM46.46 0L46.46-28.81 53.68-28.81 53.68 0 46.46 0Z" opacity="1" transform="matrix(1,0,0,1,0,0)" fill="#ff4057" class="undefined-text-0" data-fill-palette-color="primary" id="text-0"></path></svg></g></svg></g><g transform="matrix(1,0,0,1,0,187.66783680256628)"><svg viewBox="0 0 198.9785344521861 8.29368437711957" height="8.29368437711957" width="198.9785344521861"><g transform="matrix(1,0,0,1,0,0)"><svg width="198.9785344521861" viewBox="2.25 -35 854 35.599998474121094" height="8.29368437711957" data-palette-color="#ff4057"><path d="M14.3-35Q16.75-35 18.6-34.18 20.45-33.35 22.3-31.65L22.3-31.65 19.95-28.9Q18.55-30.15 17.25-30.73 15.95-31.3 14.4-31.3L14.4-31.3Q7.05-31.3 7.05-17.25L7.05-17.25Q7.05-3.25 14.55-3.25L14.55-3.25Q16.25-3.25 17.53-3.93 18.8-4.6 20.15-5.85L20.15-5.85 22.6-3.2Q21.1-1.55 19.05-0.48 17 0.6 14.45 0.6L14.45 0.6Q8.9 0.6 5.58-3.9 2.25-8.4 2.25-17.25L2.25-17.25Q2.25-23.2 3.83-27.18 5.4-31.15 8.13-33.08 10.85-35 14.3-35L14.3-35ZM47.5 0L42.5 0 35.8-14.75Q35.45-14.7 34.75-14.7L34.75-14.7 31.65-14.7 31.65 0 27.1 0 27.1-34.45 34-34.45Q40.05-34.45 43-31.95 45.95-29.45 45.95-24.75L45.95-24.75Q45.95-21.45 44.4-19.07 42.85-16.7 39.95-15.6L39.95-15.6 47.5 0ZM34.35-18.2Q37.95-18.2 39.55-19.78 41.15-21.35 41.15-24.75L41.15-24.75Q41.15-27.9 39.5-29.38 37.85-30.85 33.95-30.85L33.95-30.85 31.65-30.85 31.65-18.2 34.35-18.2ZM72.34 0L67.7 0 65.65-8.75 55.35-8.75 53.3 0 48.8 0 57.75-34.45 63.4-34.45 72.34 0ZM60.5-30.65L56.2-12.4 64.8-12.4 60.5-30.65ZM81.09 0L76.54 0 76.54-34.45 91.99-34.45 91.49-30.8 81.09-30.8 81.09-18.85 90.09-18.85 90.09-15.25 81.09-15.25 81.09 0ZM93.39-34.45L113.94-34.45 113.44-30.65 105.79-30.65 105.79 0 101.24 0 101.24-30.65 93.39-30.65 93.39-34.45ZM118.04-34.45L122.59-34.45 122.59 0 118.04 0 118.04-34.45ZM150.44-34.45L150.44 0 144.39 0 133.79-29.35Q134.09-25.85 134.26-23.1 134.44-20.35 134.44-16.2L134.44-16.2 134.44 0 130.19 0 130.19-34.45 136.24-34.45 146.84-5.05Q146.64-5.8 146.41-9.15 146.19-12.5 146.19-15.4L146.19-15.4 146.19-34.45 150.44-34.45ZM169.08-35Q171.73-35 173.76-34.08 175.78-33.15 177.78-31.25L177.78-31.25 175.28-28.7Q173.68-30.1 172.31-30.7 170.93-31.3 169.08-31.3L169.08-31.3Q165.63-31.3 163.46-28.1 161.28-24.9 161.28-17.25L161.28-17.25Q161.28-11.9 162.11-8.83 162.93-5.75 164.56-4.45 166.18-3.15 168.68-3.15L168.68-3.15Q171.38-3.15 173.63-4.65L173.63-4.65 173.63-15.35 168.93-15.35 168.43-19.05 178.03-19.05 178.03-2.45Q173.63 0.6 168.63 0.6L168.63 0.6Q156.48 0.6 156.48-17.25L156.48-17.25Q156.48-23.1 158.18-27.1 159.88-31.1 162.73-33.05 165.58-35 169.08-35L169.08-35ZM195.03-34.45L210.83-34.45 210.33-30.8 199.58-30.8 199.58-19.35 208.93-19.35 208.93-15.7 199.58-15.7 199.58-3.65 211.03-3.65 211.03 0 195.03 0 195.03-34.45ZM234.43-34.45L226.83-18.6 235.33 0 230.53 0 224.08-15.55 217.68 0 213.08 0 221.43-18.35 213.78-34.45 218.58-34.45 224.18-21.2 229.88-34.45 234.43-34.45ZM249.72-35Q252.17-35 254.02-34.18 255.87-33.35 257.72-31.65L257.72-31.65 255.37-28.9Q253.97-30.15 252.67-30.73 251.37-31.3 249.82-31.3L249.82-31.3Q242.47-31.3 242.47-17.25L242.47-17.25Q242.47-3.25 249.97-3.25L249.97-3.25Q251.67-3.25 252.95-3.93 254.22-4.6 255.57-5.85L255.57-5.85 258.02-3.2Q256.52-1.55 254.47-0.48 252.42 0.6 249.87 0.6L249.87 0.6Q244.32 0.6 241-3.9 237.67-8.4 237.67-17.25L237.67-17.25Q237.67-23.2 239.25-27.18 240.82-31.15 243.55-33.08 246.27-35 249.72-35L249.72-35ZM262.52-34.45L278.32-34.45 277.82-30.8 267.07-30.8 267.07-19.35 276.42-19.35 276.42-15.7 267.07-15.7 267.07-3.65 278.52-3.65 278.52 0 262.52 0 262.52-34.45ZM290.97-34.45Q297.02-34.45 300.14-31.75 303.27-29.05 303.27-23.8L303.27-23.8Q303.27-18.2 300.09-15.48 296.92-12.75 291.07-12.75L291.07-12.75 288.82-12.75 288.82 0 284.27 0 284.27-34.45 290.97-34.45ZM291.07-16.35Q294.92-16.35 296.72-17.98 298.52-19.6 298.52-23.75L298.52-23.75Q298.52-27.5 296.69-29.18 294.87-30.85 291.07-30.85L291.07-30.85 288.82-30.85 288.82-16.35 291.07-16.35ZM304.82-34.45L325.37-34.45 324.87-30.65 317.22-30.65 317.22 0 312.67 0 312.67-30.65 304.82-30.65 304.82-34.45ZM329.46-34.45L334.01-34.45 334.01 0 329.46 0 329.46-34.45ZM352.21-35Q357.91-35 361.11-30.58 364.31-26.15 364.31-17.2L364.31-17.2Q364.31-8.35 361.11-3.88 357.91 0.6 352.21 0.6L352.21 0.6Q346.51 0.6 343.29-3.8 340.06-8.2 340.06-17.15L340.06-17.15Q340.06-26 343.31-30.5 346.56-35 352.21-35L352.21-35ZM352.21-31.3Q348.61-31.3 346.74-28 344.86-24.7 344.86-17.15L344.86-17.15Q344.86-9.65 346.76-6.4 348.66-3.15 352.21-3.15L352.21-3.15Q355.81-3.15 357.66-6.38 359.51-9.6 359.51-17.2L359.51-17.2Q359.51-24.75 357.66-28.03 355.81-31.3 352.21-31.3L352.21-31.3ZM390.61-34.45L390.61 0 384.56 0 373.96-29.35Q374.26-25.85 374.43-23.1 374.61-20.35 374.61-16.2L374.61-16.2 374.61 0 370.36 0 370.36-34.45 376.41-34.45 387.01-5.05Q386.81-5.8 386.58-9.15 386.36-12.5 386.36-15.4L386.36-15.4 386.36-34.45 390.61-34.45ZM418.36 0L413.71 0 411.66-8.75 401.36-8.75 399.31 0 394.81 0 403.76-34.45 409.41-34.45 418.36 0ZM406.51-30.65L402.21-12.4 410.81-12.4 406.51-30.65ZM422.55-34.45L427.1-34.45 427.1-4 438.55-4 438.05 0 422.55 0 422.55-34.45ZM459.9-34.45Q464.1-34.45 467.17-33.13 470.25-31.8 472.17-28.03 474.1-24.25 474.1-17.4L474.1-17.4Q474.1-7.65 470.3-3.83 466.5 0 460.65 0L460.65 0 453.45 0 453.45-34.45 459.9-34.45ZM460.75-30.8L458-30.8 458-3.6 460.95-3.6Q463.45-3.6 465.27-4.7 467.1-5.8 468.22-8.83 469.35-11.85 469.35-17.4L469.35-17.4Q469.35-23.05 468.17-25.98 467-28.9 465.17-29.85 463.35-30.8 460.75-30.8L460.75-30.8ZM480.15-34.45L484.7-34.45 484.7 0 480.15 0 480.15-34.45ZM503.34-35Q505.99-35 508.02-34.08 510.04-33.15 512.04-31.25L512.04-31.25 509.54-28.7Q507.94-30.1 506.57-30.7 505.19-31.3 503.34-31.3L503.34-31.3Q499.89-31.3 497.72-28.1 495.54-24.9 495.54-17.25L495.54-17.25Q495.54-11.9 496.37-8.83 497.19-5.75 498.82-4.45 500.44-3.15 502.94-3.15L502.94-3.15Q505.64-3.15 507.89-4.65L507.89-4.65 507.89-15.35 503.19-15.35 502.69-19.05 512.29-19.05 512.29-2.45Q507.89 0.6 502.89 0.6L502.89 0.6Q490.74 0.6 490.74-17.25L490.74-17.25Q490.74-23.1 492.44-27.1 494.14-31.1 496.99-33.05 499.84-35 503.34-35L503.34-35ZM518.69-34.45L523.24-34.45 523.24 0 518.69 0 518.69-34.45ZM527.59-34.45L548.14-34.45 547.64-30.65 539.99-30.65 539.99 0 535.44 0 535.44-30.65 527.59-30.65 527.59-34.45ZM572.38 0L567.73 0 565.68-8.75 555.38-8.75 553.33 0 548.83 0 557.78-34.45 563.43-34.45 572.38 0ZM560.53-30.65L556.23-12.4 564.83-12.4 560.53-30.65ZM576.58-34.45L581.13-34.45 581.13-4 592.58-4 592.08 0 576.58 0 576.58-34.45ZM607.48-34.45L623.28-34.45 622.78-30.8 612.03-30.8 612.03-19.35 621.38-19.35 621.38-15.7 612.03-15.7 612.03-3.65 623.48-3.65 623.48 0 607.48 0 607.48-34.45ZM646.87-34.45L639.27-18.6 647.77 0 642.97 0 636.52-15.55 630.12 0 625.52 0 633.87-18.35 626.22-34.45 631.02-34.45 636.62-21.2 642.32-34.45 646.87-34.45ZM658.37-34.45Q664.42-34.45 667.55-31.75 670.67-29.05 670.67-23.8L670.67-23.8Q670.67-18.2 667.5-15.48 664.32-12.75 658.47-12.75L658.47-12.75 656.22-12.75 656.22 0 651.67 0 651.67-34.45 658.37-34.45ZM658.47-16.35Q662.32-16.35 664.12-17.98 665.92-19.6 665.92-23.75L665.92-23.75Q665.92-27.5 664.1-29.18 662.27-30.85 658.47-30.85L658.47-30.85 656.22-30.85 656.22-16.35 658.47-16.35ZM675.47-34.45L691.27-34.45 690.77-30.8 680.02-30.8 680.02-19.35 689.37-19.35 689.37-15.7 680.02-15.7 680.02-3.65 691.47-3.65 691.47 0 675.47 0 675.47-34.45ZM717.62 0L712.62 0 705.92-14.75Q705.57-14.7 704.87-14.7L704.87-14.7 701.77-14.7 701.77 0 697.22 0 697.22-34.45 704.12-34.45Q710.17-34.45 713.12-31.95 716.07-29.45 716.07-24.75L716.07-24.75Q716.07-21.45 714.52-19.07 712.97-16.7 710.07-15.6L710.07-15.6 717.62 0ZM704.47-18.2Q708.07-18.2 709.67-19.78 711.27-21.35 711.27-24.75L711.27-24.75Q711.27-27.9 709.62-29.38 707.97-30.85 704.07-30.85L704.07-30.85 701.77-30.85 701.77-18.2 704.47-18.2ZM722.31-34.45L726.86-34.45 726.86 0 722.31 0 722.31-34.45ZM734.46-34.45L750.26-34.45 749.76-30.8 739.01-30.8 739.01-19.35 748.36-19.35 748.36-15.7 739.01-15.7 739.01-3.65 750.46-3.65 750.46 0 734.46 0 734.46-34.45ZM776.46-34.45L776.46 0 770.41 0 759.81-29.35Q760.11-25.85 760.28-23.1 760.46-20.35 760.46-16.2L760.46-16.2 760.46 0 756.21 0 756.21-34.45 762.26-34.45 772.86-5.05Q772.66-5.8 772.43-9.15 772.21-12.5 772.21-15.4L772.21-15.4 772.21-34.45 776.46-34.45ZM794.56-35Q797.01-35 798.86-34.18 800.71-33.35 802.56-31.65L802.56-31.65 800.21-28.9Q798.81-30.15 797.51-30.73 796.21-31.3 794.66-31.3L794.66-31.3Q787.31-31.3 787.31-17.25L787.31-17.25Q787.31-3.25 794.81-3.25L794.81-3.25Q796.51-3.25 797.78-3.93 799.06-4.6 800.41-5.85L800.41-5.85 802.86-3.2Q801.36-1.55 799.31-0.48 797.26 0.6 794.71 0.6L794.71 0.6Q789.16 0.6 785.83-3.9 782.51-8.4 782.51-17.25L782.51-17.25Q782.51-23.2 784.08-27.18 785.66-31.15 788.38-33.08 791.11-35 794.56-35L794.56-35ZM807.35-34.45L823.15-34.45 822.65-30.8 811.9-30.8 811.9-19.35 821.25-19.35 821.25-15.7 811.9-15.7 811.9-3.65 823.35-3.65 823.35 0 807.35 0 807.35-34.45ZM836.6-35Q839.35-35 841.48-34.02 843.6-33.05 845.4-31.05L845.4-31.05 843-28.45Q841.45-29.95 839.95-30.63 838.45-31.3 836.65-31.3L836.65-31.3Q834.5-31.3 833.18-29.93 831.85-28.55 831.85-26.3L831.85-26.3Q831.85-24.1 833.13-22.7 834.4-21.3 837.95-19.95L837.95-19.95Q842.05-18.4 844.15-16.1 846.25-13.8 846.25-9.55L846.25-9.55Q846.25-6.8 844.98-4.48 843.7-2.15 841.35-0.78 839 0.6 835.9 0.6L835.9 0.6Q832.8 0.6 830.4-0.55 828-1.7 826.05-3.85L826.05-3.85 828.5-6.45Q830.25-4.85 831.98-4 833.7-3.15 835.8-3.15L835.8-3.15Q838.4-3.15 839.95-4.85 841.5-6.55 841.5-9.45L841.5-9.45Q841.5-11.95 840.25-13.45 839-14.95 835.6-16.2L835.6-16.2Q831.25-17.85 829.23-20.2 827.2-22.55 827.2-26.1L827.2-26.1Q827.2-28.55 828.4-30.6 829.6-32.65 831.75-33.83 833.9-35 836.6-35L836.6-35ZM853-6Q854.45-6 855.35-5.03 856.25-4.05 856.25-2.7L856.25-2.7Q856.25-1.35 855.35-0.38 854.45 0.6 853 0.6L853 0.6Q851.6 0.6 850.7-0.38 849.8-1.35 849.8-2.7L849.8-2.7Q849.8-4.05 850.7-5.03 851.6-6 853-6L853-6Z" opacity="1" transform="matrix(1,0,0,1,0,0)" fill="#ff4057" class="undefined-text-1" data-fill-palette-color="secondary" id="text-1"></path></svg></g></svg></g></svg></g></svg></g></svg></g></svg></g></svg></g><path d="M96.122 41.215L96.122 0 343.322 0 343.322 247.2 96.122 247.2 96.122 205.985 106.796 205.985 106.796 236.526 332.648 236.526 332.648 10.674 106.796 10.674 106.796 41.215Z" fill="#ff4057" stroke="transparent" data-fill-palette-color="primary"></path></svg></g><defs></defs></svg><rect width="395.52" height="247.2" fill="none" stroke="none" visibility="hidden"></rect></g></svg></g></svg>